<svg width="4650" height="1000" viewBox="0 0 4650 1000" fill="none" xmlns="http://www.w3.org/2000/svg">
<path d="M1420.34 776.526C1264.38 776.526 1167.32 672.238 1167.32 505.451V504.724C1167.32 337.936 1265.11 234.012 1420.34 234.012C1575.93 234.012 1673.36 338.299 1673.36 504.724V505.451C1673.36 672.238 1576.3 776.526 1420.34 776.526ZM1420.34 683.503C1507.59 683.503 1561.39 614.099 1561.39 505.451V504.724C1561.39 395.349 1506.5 327.035 1420.34 327.035C1334.54 327.035 1279.29 394.985 1279.29 504.724V505.451C1279.29 615.189 1334.18 683.503 1420.34 683.503Z" fill="white"/>
<path d="M1735.16 894.622V377.907H1841.31V445.858H1843.86C1864.94 398.619 1907.48 369.913 1962.74 369.913C2061.62 369.913 2121.96 445.494 2121.96 572.311V572.674C2121.96 699.128 2061.62 775.436 1964.19 775.436C1908.57 775.436 1864.58 747.093 1843.5 700.945H1841.31V894.622H1735.16ZM1927.84 687.5C1980.55 687.5 2013.99 643.532 2013.99 572.674V572.311C2013.99 501.09 1980.55 457.849 1927.84 457.849C1876.21 457.849 1840.95 502.18 1840.95 572.674V573.038C1840.95 643.169 1876.21 687.5 1927.84 687.5Z" fill="white"/>
<path d="M2354.63 775.436C2235.39 775.436 2163.04 698.038 2163.04 573.401V573.038C2163.04 449.128 2236.12 369.913 2350.27 369.913C2464.42 369.913 2536.03 447.311 2536.03 565.044V597.747H2267.74C2268.83 659.884 2302.64 696.221 2356.81 696.221C2400.43 696.221 2426.97 672.238 2434.61 650.436L2435.33 648.256H2532.76L2531.67 652.253C2519.67 709.666 2465.87 775.436 2354.63 775.436ZM2352.08 449.128C2308.46 449.128 2275.74 478.198 2268.83 530.887H2434.24C2427.7 477.108 2396.07 449.128 2352.08 449.128Z" fill="white"/>
<path d="M2590.93 767.442V377.907H2697.08V441.86H2699.26C2719.26 397.166 2759.24 369.913 2818.14 369.913C2903.93 369.913 2952.65 424.782 2952.65 515.988V767.442H2846.49V537.791C2846.49 486.919 2822.5 457.849 2774.88 457.849C2727.25 457.849 2697.08 492.733 2697.08 543.605V767.442H2590.93Z" fill="white"/>
<path d="M3033.72 767.442V243.096H3115.15V464.753H3384.53V243.096H3465.96V767.442H3384.53V535.247H3115.15V767.442H3033.72Z" fill="white"/>
<path d="M3655 774.346C3578.66 774.346 3527.4 727.471 3527.4 658.794V658.067C3527.4 591.57 3579.02 550.872 3669.54 545.422L3773.51 539.244V510.538C3773.51 468.387 3746.25 442.951 3697.53 442.951C3652.09 442.951 3624.1 464.39 3617.56 494.913L3616.83 498.183H3542.67L3543.03 494.186C3548.48 428.416 3605.56 377.907 3699.71 377.907C3793.14 377.907 3852.4 427.326 3852.4 503.997V767.442H3773.51V707.122H3772.06C3749.88 748.183 3705.53 774.346 3655 774.346ZM3606.65 656.977C3606.65 690.407 3634.28 711.483 3676.45 711.483C3731.71 711.483 3773.51 674.055 3773.51 624.273V594.477L3680.08 600.291C3632.82 603.198 3606.65 623.91 3606.65 656.25V656.977Z" fill="white"/>
<path d="M4093.06 775.073C3981.46 775.073 3911.66 698.401 3911.66 575.945V575.581C3911.66 454.578 3982.91 377.907 4091.97 377.907C4190.49 377.907 4250.11 441.134 4256.65 513.081L4257.02 515.625H4182.13L4181.4 512.718C4173.04 475.291 4143.96 443.677 4092.7 443.677C4031.62 443.677 3992 494.549 3992 576.308V576.672C3992 660.247 4032.35 709.302 4093.06 709.302C4141.41 709.302 4172.31 681.323 4181.76 639.898L4182.13 636.991H4257.74L4257.38 639.535C4249.02 716.206 4185.04 775.073 4093.06 775.073Z" fill="white"/>
<path d="M4317.73 767.442V243.096H4396.25V548.328H4398.07L4551.48 385.174H4643.82L4486.77 550.145L4650 767.442H4558.75L4428.97 597.384L4396.25 629.724V767.442H4317.73Z" fill="white"/>
<path fill-rule="evenodd" clip-rule="evenodd" d="M500.227 0C511.343 154.815 626.951 471.556 1000.45 500C848.533 506.667 535.798 616 500.227 1000C464.655 616 151.921 506.667 0 500C373.502 471.555 489.111 154.815 500.227 0ZM498.318 302.223C493.921 363.462 448.192 488.749 300.452 500C360.545 502.637 484.246 545.885 498.318 697.777C512.389 545.888 636.09 502.639 696.184 500C548.447 488.747 502.716 363.461 498.318 302.223Z" fill="url(#paint0_linear_195_3715)"/>
<defs>
<linearGradient id="paint0_linear_195_3715" x1="4650" y1="-162.791" x2="4288.27" y2="1793.1" gradientUnits="userSpaceOnUse">
<stop stop-color="#FFAB2E"/>
<stop offset="1" stop-color="#FF0022"/>
</linearGradient>
</defs>
</svg>
